<svg xmlns="http://www.w3.org/2000/svg" height="24" viewBox="0 -960 960 960" width="24"><path fill="#000000" d="M480-240q17 0 28.5-11.5T520-280v-160h160q17 0 28.5-11.5T720-480q0-17-11.5-28.5T680-520H520v-160q0-17-11.5-28.5T480-720q-17 0-28.5 11.5T440-680v160H280q-17 0-28.5 11.5T240-480q0 17 11.5 28.5T280-440h160v160q0 17 11.5 28.5T480-240ZM200-120q-33 0-56.5-23.5T120-200v-560q0-33 23.5-56.5T200-840h560q33 0 56.5 23.5T840-760v560q0 33-23.5 56.5T760-120H200Zm0-80h560v-560H200v560Zm0 0v-560 560Z"/></svg>