<svg xmlns="http://www.w3.org/2000/svg" height="24" viewBox="0 -960 960 960" width="24"><path fill="#000000" d="M480-80q-83 0-156-31.5T197-197q-54-54-85.5-127T80-480q0-83 31.5-156T197-763q54-54 127-85.5T480-880q83 0 156 31.5T763-763q54 54 85.5 127T880-480q0 83-31.5 156T763-197q-54 54-127 85.5T480-80Zm0-80q134 0 227-93t93-227q0-134-93-227t-227-93q-134 0-227 93t-93 227q0 134 93 227t227 93Zm0-320Zm0 160q17 0 28.5-11.5T520-360q0-17-11.5-28.5T480-400q-17 0-28.5 11.5T440-360q0 17 11.5 28.5T480-320ZM440-440h80q0-17 1.5-30t8.5-25q7-12 19.5-25.5T580-550q20-20 30-40t10-50q0-50-35-80t-105-30q-36 0-68.5 13T354-699l40 40q17-12 37.5-21.5T480-690q40 0 60 18t20 42q0 20-9 36.5T526-560q-25 24-40.5 39T456-485q-6 11-11 25.5t-5 19.5Z"/></svg>