<svg xmlns="http://www.w3.org/2000/svg" height="24" viewBox="0 -960 960 960" width="24"><path fill="#000000" d="M440-440H320q-17 0-28.5-11.5T280-480q0-17 11.5-28.5T320-520h120v-120q0-17 11.5-28.5T480-680q17 0 28.5 11.5T520-640v120h120q17 0 28.5 11.5T680-480q0 17-11.5 28.5T640-440H520v120q0 17-11.5 28.5T480-280q-17 0-28.5-11.5T440-320v-120Zm40 320q-117 0-198.5-81.5T200-400q0-117 81.5-198.5T480-680q117 0 198.5 81.5T760-400q0 117-81.5 198.5T480-120Zm0-80q83 0 141.5-58.5T680-400q0-83-58.5-141.5T480-600q-83 0-141.5 58.5T280-400q0 83 58.5 141.5T480-200Zm0-200Z"/></svg>